<?xml version="1.0" encoding="UTF-8" standalone="no"?>
<!-- Created with Inkscape (http://www.inkscape.org/) -->

<svg
   xmlns:dc="http://purl.org/dc/elements/1.1/"
   xmlns:cc="http://creativecommons.org/ns#"
   xmlns:rdf="http://www.w3.org/1999/02/22-rdf-syntax-ns#"
   xmlns:svg="http://www.w3.org/2000/svg"
   xmlns="http://www.w3.org/2000/svg"
   xmlns:sodipodi="http://sodipodi.sourceforge.net/DTD/sodipodi-0.dtd"
   xmlns:inkscape="http://www.inkscape.org/namespaces/inkscape"
   width="13.546667mm"
   height="13.546667mm"
   viewBox="0 0 13.546667 13.546667"
   version="1.1"
   id="svg8"
   inkscape:version="0.92.5 (2060ec1f9f, 2020-04-08)"
   sodipodi:docname="insta.svg">
  <defs
     id="defs2">
    <clipPath
       id="_clipPath_i4UO9EuqeyPyi74R9JJeNEqeTDZFEDzc">
      <rect
         id="rect10"
         height="768"
         width="1366"
         x="0"
         y="0" />
    </clipPath>
    <clipPath
       id="_clipPath_VpQiL3MMGqUueuiGLXlGp2tD86HKPEZM">
      <rect
         id="rect62"
         height="768"
         width="1366"
         x="0"
         y="0" />
    </clipPath>
    <clipPath
       id="_clipPath_RzfPZNmU8LBFDo5pvmikCXEJFUwxTh50">
      <rect
         id="rect131"
         height="768"
         width="1366"
         x="0"
         y="0" />
    </clipPath>
    <clipPath
       id="_clipPath_k75Jns0RgF4V5qt3LTxUtVF3QClBXyzp">
      <rect
         id="rect200"
         height="768"
         width="1366"
         x="0"
         y="0" />
    </clipPath>
  </defs>
  <sodipodi:namedview
     id="base"
     pagecolor="#ffffff"
     bordercolor="#666666"
     borderopacity="1.0"
     inkscape:pageopacity="0.0"
     inkscape:pageshadow="2"
     inkscape:zoom="0.49497475"
     inkscape:cx="-380.39991"
     inkscape:cy="130.24745"
     inkscape:document-units="mm"
     inkscape:current-layer="g209"
     showgrid="false"
     inkscape:window-width="1366"
     inkscape:window-height="704"
     inkscape:window-x="0"
     inkscape:window-y="27"
     inkscape:window-maximized="1" />
  <metadata
     id="metadata5">
    <rdf:RDF>
      <cc:Work
         rdf:about="">
        <dc:format>image/svg+xml</dc:format>
        <dc:type
           rdf:resource="http://purl.org/dc/dcmitype/StillImage" />
        <dc:title></dc:title>
      </cc:Work>
    </rdf:RDF>
  </metadata>
  <g
     inkscape:label="Layer 1"
     inkscape:groupmode="layer"
     id="layer1"
     transform="translate(-299.16682,-193.99675)">
    <g
       style="isolation:isolate"
       id="g32"
       transform="matrix(0.35277778,0,0,0.35277778,-114.70318,29.997618)">
      <g
         id="g19"
         clip-path="url(#_clipPath_i4UO9EuqeyPyi74R9JJeNEqeTDZFEDzc)">
        <g
           style="isolation:isolate"
           id="g84"
           transform="translate(-16.759877,20.597767)">
          <g
             id="g71"
             clip-path="url(#_clipPath_VpQiL3MMGqUueuiGLXlGp2tD86HKPEZM)">
            <g
               style="isolation:isolate"
               id="g153"
               transform="translate(-86.382795,-24.938731)">
              <g
                 id="g140"
                 clip-path="url(#_clipPath_RzfPZNmU8LBFDo5pvmikCXEJFUwxTh50)">
                <g
                   style="isolation:isolate"
                   id="g222"
                   transform="translate(-35.982531,-10.779607)">
                  <g
                     id="g209"
                     clip-path="url(#_clipPath_k75Jns0RgF4V5qt3LTxUtVF3QClBXyzp)">
                    <path
                       id="path207"
                       d="m 1322.967,480 c -5.891,0 -10.667,4.776 -10.667,10.667 v 17.066 c 0,5.891 4.776,10.667 10.667,10.667 h 17.066 c 5.891,0 10.667,-4.776 10.667,-10.667 v -17.066 c 0,-5.891 -4.776,-10.667 -10.667,-10.667 z m 21.333,4.267 c 1.173,0 2.133,0.96 2.133,2.133 0,1.173 -0.96,2.133 -2.133,2.133 -1.173,0 -2.133,-0.96 -2.133,-2.133 0,-1.173 0.96,-2.133 2.133,-2.133 z m -12.8,4.266 c 5.891,0 10.667,4.776 10.667,10.667 0,5.891 -4.776,10.667 -10.667,10.667 -5.891,0 -10.667,-4.776 -10.667,-10.667 0,-5.891 4.776,-10.667 10.667,-10.667 z m 0,4.267 c -2.287,10e-4 -4.4,1.222 -5.543,3.203 -1.143,1.981 -1.143,4.422 0,6.402 1.144,1.98 3.258,3.2 5.545,3.199 3.536,-10e-4 6.401,-2.868 6.4,-6.404 -10e-4,-3.536 -2.868,-6.401 -6.404,-6.4 z"
                       inkscape:connector-curvature="0"
                       style="fill:#000000" />
                  </g>
                </g>
              </g>
            </g>
          </g>
        </g>
      </g>
    </g>
  </g>
</svg>
