<?xml version="1.0" encoding="UTF-8" standalone="no"?>
<!-- Created with Inkscape (http://www.inkscape.org/) -->

<svg
   xmlns:dc="http://purl.org/dc/elements/1.1/"
   xmlns:cc="http://creativecommons.org/ns#"
   xmlns:rdf="http://www.w3.org/1999/02/22-rdf-syntax-ns#"
   xmlns:svg="http://www.w3.org/2000/svg"
   xmlns="http://www.w3.org/2000/svg"
   xmlns:sodipodi="http://sodipodi.sourceforge.net/DTD/sodipodi-0.dtd"
   xmlns:inkscape="http://www.inkscape.org/namespaces/inkscape"
   width="23.177147mm"
   height="23.177147mm"
   viewBox="0 0 23.177147 23.177147"
   version="1.1"
   id="svg8"
   sodipodi:docname="footerLogo.svg"
   inkscape:version="0.92.5 (2060ec1f9f, 2020-04-08)">
  <defs
     id="defs2">
    <clipPath
       id="_clipPath_cpyplrWxhLdvjrqqLY9R2zXJwhb6Hmf2">
      <rect
         id="rect10"
         height="768"
         width="1366"
         x="0"
         y="0" />
    </clipPath>
    <clipPath
       id="_clipPath_EaK7yN6OSwlPgSJCx2p7OSr0GC01GOFh">
      <rect
         id="rect79"
         height="768"
         width="1366"
         x="0"
         y="0" />
    </clipPath>
    <clipPath
       id="_clipPath_QYLxet2I1jGejXQi1RxjWCDwNiFT6ilS">
      <rect
         id="rect148"
         height="768"
         width="1366"
         x="0"
         y="0" />
    </clipPath>
    <clipPath
       id="_clipPath_QYLxet2I1jGejXQi1RxjWCDwNiFT6ilS-6">
      <rect
         id="rect187"
         height="768"
         width="1366"
         x="0"
         y="0" />
    </clipPath>
    <clipPath
       id="_clipPath_bMwHorYYJXf9orfH4O5Tiki69NxDHJC5">
      <rect
         id="rect245"
         height="768"
         width="1366"
         x="0"
         y="0" />
    </clipPath>
  </defs>
  <sodipodi:namedview
     id="base"
     pagecolor="#ffffff"
     bordercolor="#666666"
     borderopacity="1.0"
     inkscape:pageopacity="0.0"
     inkscape:pageshadow="2"
     inkscape:zoom="0.35"
     inkscape:cx="485.15428"
     inkscape:cy="-40.481897"
     inkscape:document-units="mm"
     inkscape:current-layer="g260"
     showgrid="false"
     inkscape:window-width="1366"
     inkscape:window-height="704"
     inkscape:window-x="0"
     inkscape:window-y="27"
     inkscape:window-maximized="1" />
  <metadata
     id="metadata5">
    <rdf:RDF>
      <cc:Work
         rdf:about="">
        <dc:format>image/svg+xml</dc:format>
        <dc:type
           rdf:resource="http://purl.org/dc/dcmitype/StillImage" />
        <dc:title></dc:title>
      </cc:Work>
    </rdf:RDF>
  </metadata>
  <g
     inkscape:label="Layer 1"
     inkscape:groupmode="layer"
     id="layer1"
     transform="translate(-116.81279,-228.30157)">
    <g
       style="isolation:isolate"
       id="g32"
       transform="matrix(0.35277778,0,0,0.35277778,-109.41151,41.336904)">
      <g
         id="g19"
         clip-path="url(#_clipPath_cpyplrWxhLdvjrqqLY9R2zXJwhb6Hmf2)">
        <g
           style="isolation:isolate"
           id="g101"
           transform="translate(203.57143,17.142857)">
          <g
             id="g88"
             clip-path="url(#_clipPath_EaK7yN6OSwlPgSJCx2p7OSr0GC01GOFh)">
            <g
               style="isolation:isolate"
               id="g170"
               transform="translate(-227.14286,-135)">
              <g
                 id="g157"
                 clip-path="url(#_clipPath_QYLxet2I1jGejXQi1RxjWCDwNiFT6ilS)">
                <path
                   id="path155"
                   d="m 760.077,710 h -20.98 c -1.445,0 -2.622,1.178 -2.622,2.623 v 20.98 c 0,1.445 1.177,2.622 2.622,2.622 h 20.98 c 1.445,0 2.623,-1.177 2.623,-2.622 v -20.98 c 0,-1.445 -1.178,-2.623 -2.623,-2.623 z m -3.144,8.917 v 0.524 c 0,4.983 -3.807,10.75 -10.757,10.75 -2.095,0 -4.061,-0.656 -5.767,-1.7 h 0.917 c 1.705,0 3.41,-0.655 4.721,-1.578 -1.705,0 -3.016,-1.178 -3.538,-2.623 0.261,0 0.522,0.134 0.656,0.134 0.388,0 0.655,0 1.044,-0.134 -1.7,-0.388 -3.011,-1.833 -3.011,-3.666 0.522,0.261 1.044,0.388 1.699,0.522 -1.043,-0.918 -1.699,-1.967 -1.699,-3.278 0,-0.656 0.127,-1.312 0.522,-1.834 1.833,2.228 4.589,3.8 7.734,3.934 0,-0.267 -0.128,-0.528 -0.128,-0.923 0.002,-2.098 1.702,-3.799 3.8,-3.8 1.051,0 2.101,0.393 2.757,1.178 0.916,-0.128 1.704,-0.522 2.36,-0.917 -0.266,0.918 -0.922,1.573 -1.705,2.101 0.783,-0.134 1.439,-0.263 2.228,-0.656 -0.508,0.745 -1.126,1.408 -1.833,1.967 z"
                   inkscape:connector-curvature="0"
                   style="fill:#ffffff" />
                <g
                   style="isolation:isolate"
                   id="g209"
                   transform="translate(98.571427,-4.2857119)">
                  <g
                     id="g196"
                     clip-path="url(#_clipPath_QYLxet2I1jGejXQi1RxjWCDwNiFT6ilS-6)">
                    <path
                       id="path194"
                       d="m 760.077,710 h -20.98 c -1.445,0 -2.622,1.178 -2.622,2.623 v 20.98 c 0,1.445 1.177,2.622 2.622,2.622 h 20.98 c 1.445,0 2.623,-1.177 2.623,-2.622 v -20.98 c 0,-1.445 -1.178,-2.623 -2.623,-2.623 z m -3.144,8.917 v 0.524 c 0,4.983 -3.807,10.75 -10.757,10.75 -2.095,0 -4.061,-0.656 -5.767,-1.7 h 0.917 c 1.705,0 3.41,-0.655 4.721,-1.578 -1.705,0 -3.016,-1.178 -3.538,-2.623 0.261,0 0.522,0.134 0.656,0.134 0.388,0 0.655,0 1.044,-0.134 -1.7,-0.388 -3.011,-1.833 -3.011,-3.666 0.522,0.261 1.044,0.388 1.699,0.522 -1.043,-0.918 -1.699,-1.967 -1.699,-3.278 0,-0.656 0.127,-1.312 0.522,-1.834 1.833,2.228 4.589,3.8 7.734,3.934 0,-0.267 -0.128,-0.528 -0.128,-0.923 0.002,-2.098 1.702,-3.799 3.8,-3.8 1.051,0 2.101,0.393 2.757,1.178 0.916,-0.128 1.704,-0.522 2.36,-0.917 -0.266,0.918 -0.922,1.573 -1.705,2.101 0.783,-0.134 1.439,-0.263 2.228,-0.656 -0.508,0.745 -1.126,1.408 -1.833,1.967 z"
                       inkscape:connector-curvature="0"
                       style="fill:#ffffff" />
                    <g
                       style="isolation:isolate"
                       id="g276"
                       transform="translate(-107.14285,1.1338582e-6)">
                      <g
                         id="g260"
                         clip-path="url(#_clipPath_bMwHorYYJXf9orfH4O5Tiki69NxDHJC5)">
                        <g
                           id="g258"
                           transform="translate(-488.57143,-6.4285714)">
                          <path
                             id="path252"
                             d="m 1161.98,691.4 c 0,-18.131 14.719,-32.85 32.849,-32.85 18.131,0 32.85,14.719 32.85,32.85 0,18.13 -14.719,32.849 -32.85,32.849 -18.13,0 -32.849,-14.719 -32.849,-32.849 z m 2.934,0 c 0,-16.511 13.405,-29.916 29.915,-29.916 16.511,0 29.915,13.405 29.915,29.916 0,16.51 -13.404,29.915 -29.915,29.915 -16.51,0 -29.915,-13.405 -29.915,-29.915 z"
                             inkscape:connector-curvature="0"
                             style="fill:#61892f;fill-rule:evenodd" />
                          <text
                             id="text254"
                             style="font-style:normal;font-weight:400;font-size:71px;font-family:BilboINC;fill:#ffffff;stroke:none"
                             transform="matrix(0.253,0,0,0.253,1170.795,688.375)">COMPRESS</text>
                          <text
                             id="text256"
                             style="font-style:normal;font-weight:400;font-size:71px;font-family:BilboINC;fill:#61892f;stroke:none"
                             transform="matrix(0.253,0,0,0.253,1180.857,706.344)">- I T -</text>
                        </g>
                      </g>
                    </g>
                  </g>
                </g>
              </g>
            </g>
          </g>
        </g>
      </g>
    </g>
  </g>
</svg>
